#!OML:ASF I:\Actors\actors\Patient Classification 2\Patient 1\Session 1\actor1.ASF
:FULLY-SPECIFIED
:DEGREES
362
root -0.726538 18.6962 5.63816 0.0301383 -5.53711 -0.510632
lowerback 9.01251 -2.83857 12.4404
upperback -2.60003 -1.7631 7.00804
thorax -8.09967 -1.26481 0.85765
lowerneck -17.6814 -1.75147 -2.72794
upperneck 13.0437 -0.534675 -6.95396
head 6.90253 -1.04672 -1.8836
rclavicle 2.94077e-014 -9.22361e-014
rhumerus -33.6808 32.3542 -63.1445
rradius 115.409
rwrist -0.497667
rhand -9.33021 -34.1605
rfingers 7.12502
rthumb 16.6286 -63.4681
lclavicle 2.94077e-014 -9.22361e-014
lhumerus 47.5703 -23.9041 32.5683
lradius 89.0629
lwrist -21.0678
lhand -6.51185 -21.9749
lfingers 7.12502
lthumb 19.3403 7.08339
rfemur 0 0 0
rtibia 0
rfoot 0 0
rtoes 0
lfemur -1.86778 1.59478 -13.0358
ltibia 19.5404
lfoot -19.7397 10.2142
ltoes -56.0405
363
root -0.732571 18.6927 5.64073 -0.171479 -5.01131 -0.556596
lowerback 9.0195 -2.98118 12.4374
upperback -2.5191 -1.96065 6.99949
thorax -8.03076 -1.35478 0.879447
lowerneck -17.7498 -1.75942 -2.83926
upperneck 12.9459 -0.519555 -6.95597
head 6.88367 -1.04348 -1.86422
rclavicle 5.10504e-014 4.13472e-014
rhumerus -34.0371 32.3436 -63.4546
rradius 115.544
rwrist -0.122887
rhand -9.31654 -34.0779
rfingers 7.12502
rthumb 16.6417 -63.3845
lclavicle 5.10504e-014 4.13472e-014
lhumerus 48.1613 -25.0701 30.1793
lradius 89.9869
lwrist -22.4408
lhand -9.36564 -21.7091
lfingers 7.12502
lthumb 16.5944 7.60146
rfemur 0 0 0
rtibia 0
rfoot 0 0
rtoes 0
lfemur -1.73988 1.2225 -12.9504
ltibia 19.553
lfoot -19.7103 10.0357
ltoes -55.9825
364
root -0.740866 18.6891 5.64476 -0.398996 -4.50758 -0.535948
lowerback 9.01248 -3.16188 12.3817
upperback -2.39848 -2.22319 6.98662
thorax -7.91249 -1.47125 0.93248
lowerneck -17.8467 -1.73705 -2.80456
upperneck 12.7926 -0.463955 -7.1925
head 6.85231 -1.0338 -1.9402
rclavicle 1.75924e-014 -1.90833e-014
rhumerus -34.2989 32.3845 -63.8338
rradius 115.692
rwrist 0.232483
rhand -9.3087 -33.9142
rfingers 7.12502
rthumb 16.6493 -63.2201
lclavicle 1.75924e-014 -1.90833e-014
lhumerus 48.1799 -25.399 29.1536
lradius 91.5176
lwrist -20.6044
lhand -6.8627 -21.1018
lfingers 7.12502
lthumb 19.0029 7.98988
rfemur 0 0 0
rtibia 0
rfoot 0 0
rtoes 0
lfemur -1.55069 1.05199 -12.8938
ltibia 19.5041
lfoot -19.5738 9.72552
ltoes -56.054
365
root -0.744635 18.6881 5.6458 -0.478751 -4.37471 -0.427806
lowerback 9.04699 -3.18698 12.3181
upperback -2.32203 -2.2752 6.86997
thorax -7.85297 -1.49236 0.846358
lowerneck -17.8304 -1.70469 -2.4366
upperneck 12.5829 -0.468845 -7.55779
head 6.77956 -1.04393 -2.11574
rclavicle 7.47927e-015 -9.54166e-014
rhumerus -33.8903 32.3525 -63.842
rradius 115.475
rwrist 0.00843882
rhand -9.09276 -33.9972
rfingers 7.12502
rthumb 16.8571 -63.2855
lclavicle 7.47927e-015 -9.54166e-014
lhumerus 47.6973 -25.2133 29.1663
lradius 92.5586
lwrist -20.4009
lhand -7.0546 -21.5133
lfingers 7.12502
lthumb 18.8183 7.59645
rfemur 0 0 0
rtibia 0
rfoot 0 0
rtoes 0
lfemur -1.45737 1.09008 -12.9721
ltibia 19.4217
lfoot -19.4259 9.60476
ltoes -56.2058
366
root -0.744407 18.6893 5.64461 -0.429746 -4.55697 -0.257173
lowerback 9.08888 -3.16765 12.2013
upperback -2.2735 -2.26675 6.81334
thorax -7.81856 -1.48241 0.845511
lowerneck -17.802 -1.60091 -2.32977
upperneck 12.4295 -0.347367 -7.67962
head 6.72849 -0.985705 -2.15667
rclavicle -3.10601e-014 -1.59028e-014
rhumerus -33.2559 32.5515 -63.7409
rradius 115.261
rwrist -0.251678
rhand -8.7986 -34.0161
rfingers 7.12502
rthumb 17.1403 -63.2801
lclavicle -3.10601e-014 -1.59028e-014
lhumerus 46.4587 -24.4203 30.276
lradius 92.9437
lwrist -21.8404
lhand -10.1468 -23.5246
lfingers 7.12502
lthumb 15.8423 5.84722
rfemur 0 0 0
rtibia 0
rfoot 0 0
rtoes 0
lfemur -1.44562 1.24978 -13.1556
ltibia 19.3377
lfoot -19.3873 9.62653
ltoes -56.2093
367
root -0.743098 18.6911 5.64377 -0.342567 -4.86648 -0.132256
lowerback 9.11446 -3.11544 12.2035
upperback -2.24741 -2.2023 6.73264
thorax -7.80213 -1.45265 0.745819
lowerneck -17.732 -1.50715 -2.25634
upperneck 12.3644 -0.254318 -7.63008
head 6.69765 -0.929129 -2.1402
rclavicle -3.97569e-014 -5.725e-014
rhumerus -34.1153 32.6599 -64.6922
rradius 115.83
rwrist 0.400323
rhand -8.74766 -33.6935
rfingers 7.12502
rthumb 17.1893 -62.9532
lclavicle -3.97569e-014 -5.725e-014
lhumerus 44.8971 -22.6512 32.69
lradius 93.1335
lwrist -20.8808
lhand -9.72861 -22.2187
lfingers 7.12502
lthumb 16.245 7.1207
rfemur 0 0 0
rtibia 0
rfoot 0 0
rtoes 0
lfemur -1.44513 1.47742 -13.2941
ltibia 19.2642
lfoot -19.4038 9.6844
ltoes -56.128
368
root -0.740577 18.6936 5.64256 -0.219966 -5.2114 -0.0698779
lowerback 9.18832 -3.05953 12.3069
upperback -2.27752 -2.10484 6.65038
thorax -7.87811 -1.41601 0.59111
lowerneck -17.5535 -1.44908 -2.18801
upperneck 12.2965 -0.227776 -7.49419
head 6.6451 -0.894865 -2.10038
rclavicle 1.53064e-014 6.99722e-014
rhumerus -33.6874 32.9434 -64.6593
rradius 115.694
rwrist 0.153687
rhand -8.84017 -33.541
rfingers 7.12502
rthumb 17.1003 -62.8085
lclavicle 1.53064e-014 6.99722e-014
lhumerus 43.342 -20.625 35.5099
lradius 93.3366
lwrist -19.4052
lhand -8.34037 -20.9322
lfingers 7.12502
lthumb 17.5813 8.29284
rfemur 0 0 0
rtibia 0
rfoot 0 0
rtoes 0
lfemur -1.47847 1.6822 -13.3772
ltibia 19.2004
lfoot -19.4251 9.80855
ltoes -56.0609
369
root -0.73628 18.6961 5.64199 -0.0949464 -5.4515 0.0140114
lowerback 9.26504 -3.01697 12.344
upperback -2.34434 -2.02573 6.59783
thorax -7.9932 -1.38687 0.509458
lowerneck -17.2971 -1.45226 -2.26266
upperneck 12.214 -0.271743 -7.24491
head 6.57312 -0.88979 -2.00699
rclavicle -5.1684e-014 1.90833e-014
rhumerus -33.2368 33.2337 -64.4927
rradius 115.525
rwrist -0.232097
rhand -9.04571 -33.5466
rfingers 7.12502
rthumb 16.9024 -62.831
lclavicle -5.1684e-014 1.90833e-014
lhumerus 42.0522 -18.313 38.6594
lradius 92.6175
lwrist -19.3387
lhand -8.45487 -19.648
lfingers 7.12502
lthumb 17.4711 9.58687
rfemur 0 0 0
rtibia 0
rfoot 0 0
rtoes 0
lfemur -1.55085 1.82054 -13.4902
ltibia 19.1613
lfoot -19.4339 9.90817
ltoes -56.0404
